<?xml version="1.0" encoding="UTF-8"?>
<svg xmlns="http://www.w3.org/2000/svg" width="332" height="29" viewBox="0 0 332 29">
  <g id="Logo" transform="translate(50 0.175)">
    <g id="Group_721" data-name="Group 721" transform="translate(-50 -0.175)">
      <path id="Path_537" data-name="Path 537" d="M234.89,27,236.7,22.54a9.842,9.842,0,0,0,5.711,2.07q4.3,0,4.3-3.058a4.389,4.389,0,0,0-1.006-2.73,13.4,13.4,0,0,0-4.193-2.92,20.3,20.3,0,0,1-4.294-2.654,7.166,7.166,0,0,1-1.678-2.474,8.16,8.16,0,0,1-.6-3.178,6.966,6.966,0,0,1,2.338-5.382A8.567,8.567,0,0,1,243.312.075c3.186,0,5.533.6,7.016,1.807l-1.482,4.291a9.12,9.12,0,0,0-5.46-1.878,3.642,3.642,0,0,0-2.617.911,3.135,3.135,0,0,0-.912,2.356c0,1.609,1.741,3.277,5.245,5.016a17,17,0,0,1,4,2.525,7.755,7.755,0,0,1,1.854,2.7,8.781,8.781,0,0,1,.644,3.432,6.953,6.953,0,0,1-2.638,5.6,10.806,10.806,0,0,1-7.1,2.2A12.465,12.465,0,0,1,234.89,27" transform="translate(-77.136 -0.025)" fill="#aa8972"></path>
      <path id="Path_538" data-name="Path 538" d="M299.119,5.184v23.6h-4.9V5.184h-8.765V.767h22.853V5.184Z" transform="translate(-93.747 -0.251)" fill="#aa8972"></path>
      <path id="Path_539" data-name="Path 539" d="M341.717,14.3a16.033,16.033,0,0,1,3.222-10.126,10.44,10.44,0,0,1,8.64-4.14c3.957,0,7,1.254,9.1,3.753s3.157,6,3.157,10.512-1.109,8.093-3.3,10.738-5.3,3.974-9.328,3.974a10.058,10.058,0,0,1-8.533-3.933c-1.984-2.629-2.962-6.218-2.962-10.779m5.087,0a14.8,14.8,0,0,0,1.631,7.6,5.265,5.265,0,0,0,4.776,2.693,6.509,6.509,0,0,0,5.6-2.64q1.931-2.632,1.929-7.658,0-9.846-7.162-9.839a5.656,5.656,0,0,0-5.024,2.659A12.963,12.963,0,0,0,346.8,14.3" transform="translate(-112.227 -0.011)" fill="#aa8972"></path>
      <path id="Path_540" data-name="Path 540" d="M425.01,29.157l-13.4-17.718V28.782H406.9V.767h2.368l13.032,16.9V.767H427v28.39Z" transform="translate(-133.703 -0.251)" fill="#aa8972"></path>
      <path id="Path_541" data-name="Path 541" d="M473.015,5.184v6.559h9.1v4.222h-9.1v8.4h12.5v4.425H468.105V.767h17.617V5.184Z" transform="translate(-153.723 -0.251)" fill="#aa8972"></path>
      <path id="Path_542" data-name="Path 542" d="M0,28.785V.767H4.889V24.36H17.364v4.425Z" transform="translate(0 -0.251)" fill="#1c1c1c"></path>
      <path id="Path_543" data-name="Path 543" d="M120.073,28.694h-6.131V.7q5.87-.206,7.378-.209,6.022,0,9.559,3.586a12.984,12.984,0,0,1,3.529,9.513q0,15.1-14.336,15.1m-1.231-23.65V24.161c.8.077,1.651.109,2.564.109a6.929,6.929,0,0,0,5.822-2.729c1.4-1.818,2.087-4.373,2.087-7.649q0-8.987-8.219-8.987c-.53,0-1.285.048-2.254.141" transform="translate(-37.419 -0.16)" fill="#1c1c1c"></path>
      <path id="Path_544" data-name="Path 544" d="M176.989,4.416v6.556h9.122V15.2h-9.122V23.59H189.5v4.425H172.09V0h17.617V4.416Z" transform="translate(-56.513 0)" fill="#1c1c1c"></path>
      <path id="Path_545" data-name="Path 545" d="M52.651,14.3A15.974,15.974,0,0,1,55.874,4.173,10.427,10.427,0,0,1,64.52.033c3.96,0,7,1.254,9.084,3.753Q76.763,7.53,76.754,14.3t-3.28,10.738q-3.3,3.977-9.336,3.974a10.033,10.033,0,0,1-8.524-3.933c-1.984-2.629-2.963-6.218-2.963-10.779m5.087,0q0,4.909,1.63,7.6a5.258,5.258,0,0,0,4.77,2.693,6.531,6.531,0,0,0,5.611-2.64c1.275-1.755,1.927-4.312,1.927-7.658q0-9.846-7.155-9.839A5.686,5.686,0,0,0,59.48,7.119a12.953,12.953,0,0,0-1.742,7.18" transform="translate(-17.222 -0.011)" fill="#1c1c1c"></path>
    </g>
  </g>
</svg>
